PathFileType	4	(X/Y/Z)	\\Move.snu.ac.kr\motion\Animal\091204_091205_Bird\091205_bird\Project 2\Capture day 2\Session 1\pigeon_015.trc
DataRate	CameraRate	NumFrames	NumMarkers	Units	OrigDataRate	OrigDataStartFrame	OrigNumFrames
240.0	240.0	20	14	mm	240.0	1	2522
Frame#	Time	14MarkersBird:Head			14MarkersBird:C_back			14MarkersBird:Spine			14MarkersBird:L-shoulder			14MarkersBird:L-elbow			14MarkersBird:L-wrist			14MarkersBird:L-hand			14MarkersBird:R-shoulder			14MarkersBird:R-elbow			14MarkersBird:R-Wrist			14MarkersBird:R-hand			14MarkersBird:C_Tail			14MarkersBird:L-Tale			14MarkersBird:R-Tale			
		X1	Y1	Z1	X2	Y2	Z2	X3	Y3	Z3	X4	Y4	Z4	X5	Y5	Z5	X6	Y6	Z6	X7	Y7	Z7	X8	Y8	Z8	X9	Y9	Z9	X10	Y10	Z10	X11	Y11	Z11	X12	Y12	Z12	X13	Y13	Z13	X14	Y14	Z14	

1117	4.650	11.95419	1211.55542	-669.45703	31.82147	1192.34924	-728.31219	52.27588	1169.60913	-772.47723	44.22740	1198.45679	-688.66687	65.05686	1211.10132	-710.45245	78.57889	1227.97498	-668.98834	97.11505	1242.96924	-650.87366	0.94047	1194.67847	-706.83002	4.99736	1208.93567	-740.16675	-35.26241	1225.13354	-732.33301	-68.66441	1242.84570	-750.98022	123.93167	1143.03760	-858.68616	153.65695	1152.97156	-756.49548	32.08858	1108.23987	-867.09320	
1118	4.654	11.47080	1219.54895	-670.24231	32.64407	1199.11084	-730.08252	53.78254	1173.84973	-772.71320	44.72858	1206.04834	-688.86865	68.70298	1215.58569	-707.55835	81.80225	1226.49243	-664.68701	100.18533	1237.12805	-643.87097	1.20620	1202.45691	-708.67529	0.30750	1212.90381	-743.25110	-41.97607	1223.96875	-735.43591	-78.45615	1233.91956	-750.89764	123.26765	1137.16333	-857.83429	153.74796	1154.29651	-753.41168	26.24104	1106.18604	-862.65759	
1119	4.658	11.17567	1227.63550	-671.22467	33.86697	1206.21497	-731.92627	55.57147	1178.06750	-772.96490	45.82190	1212.99292	-689.55573	72.93365	1218.79419	-705.51575	83.36024	1224.26526	-660.53961	100.55545	1230.22876	-637.24951	1.41100	1209.36792	-711.28284	-4.13148	1216.28137	-745.52771	-46.64059	1220.91553	-736.20612	-85.69203	1223.44507	-747.98383	122.69345	1129.79041	-855.09998	153.83719	1154.16333	-750.51129	20.07109	1106.23071	-858.12262	
1120	4.662	10.64925	1235.34131	-672.01270	35.68895	1213.27246	-733.97089	57.27508	1181.95251	-772.93005	46.81643	1220.57422	-691.03009	74.65852	1221.70935	-704.35559	80.37536	1222.66907	-658.62964	94.56931	1223.27808	-634.23767	2.03240	1216.84790	-713.99017	-6.14421	1218.95300	-746.72302	-46.86636	1219.06152	-733.28955	-85.26638	1215.64807	-739.65491	121.11564	1121.86621	-849.24738	153.56903	1153.30884	-748.37012	14.54315	1108.59302	-852.81128	
1121	4.667	10.13016	1242.96729	-672.96136	37.42042	1220.17896	-735.91772	58.92221	1185.95984	-772.88116	47.77002	1228.09668	-692.58209	76.12731	1224.65125	-703.33588	77.12737	1221.96106	-657.14697	88.11958	1217.73364	-631.88770	2.66012	1224.19458	-716.59399	-7.80544	1221.73755	-747.85754	-46.74442	1218.57996	-730.34479	-84.35548	1209.39697	-731.54407	119.16145	1114.57849	-843.33228	153.17247	1152.71484	-746.19843	9.48676	1110.98816	-847.93335	
1122	4.671	9.57315	1250.38000	-674.13348	39.07039	1226.81580	-737.69476	60.42478	1190.09900	-772.72186	48.59052	1235.55933	-694.43573	76.81944	1227.61230	-702.82422	72.80845	1222.92151	-656.76392	80.04015	1214.57507	-631.22937	3.30933	1231.33154	-719.04260	-8.52961	1224.66663	-748.74438	-45.17838	1220.31702	-726.80316	-81.27615	1206.19470	-722.92023	116.45277	1108.24011	-836.83679	152.49875	1152.27832	-744.02313	5.35013	1114.04358	-843.59039	
1123	4.675	8.97551	1257.53259	-675.57697	40.46696	1233.05444	-739.14868	61.72025	1194.45776	-772.43671	49.14526	1242.79285	-696.57611	76.84435	1230.77502	-703.00616	67.94656	1226.17078	-657.63971	71.02551	1214.70801	-632.39893	3.87409	1238.11523	-721.21283	-8.34185	1228.00854	-749.55170	-42.16377	1224.61353	-723.23932	-76.18330	1206.82983	-714.48859	112.96387	1103.30811	-830.06238	151.46767	1151.99890	-741.69434	2.41472	1117.79773	-839.92712	
1124	4.679	8.35623	1264.42981	-677.28320	41.40595	1238.81287	-740.12494	62.86582	1199.19128	-772.10852	49.31001	1249.56812	-698.81116	76.57466	1234.40710	-703.97742	63.68661	1232.01208	-659.69214	62.61027	1218.64258	-635.11224	4.23668	1244.43689	-722.98505	-7.46222	1232.06372	-750.60620	-38.18044	1231.38928	-720.71088	-69.98485	1211.42419	-707.48450	108.94930	1100.12231	-823.50525	150.01843	1151.88220	-739.07355	0.77491	1121.94128	-836.93286	
1125	4.683	7.73601	1271.08704	-679.17828	41.77162	1244.10767	-740.55298	63.97605	1204.41553	-771.81842	49.01824	1255.72473	-700.85913	76.29291	1238.77112	-705.80402	61.10234	1240.30884	-662.75067	56.39577	1226.24048	-638.92877	4.33146	1250.26526	-724.31732	-5.96109	1237.03674	-752.20453	-33.79232	1240.24512	-720.12921	-63.71255	1219.56238	-703.06812	104.81462	1098.71924	-817.41028	148.11043	1151.94519	-736.13403	0.30604	1126.05627	-834.34607	
1126	4.688	7.14376	1277.51318	-681.15509	41.61574	1249.05481	-740.52106	65.02691	1210.04944	-771.52386	48.29231	1261.24524	-702.44135	76.02212	1244.07300	-708.50146	60.71743	1250.56348	-666.61615	53.66838	1236.77429	-643.30438	4.16557	1255.62708	-725.25397	-3.64590	1243.01343	-754.44360	-29.50381	1250.60632	-721.94507	-58.34673	1230.46436	-702.16919	100.98069	1098.88672	-811.73260	145.78232	1152.29785	-732.98102	0.67919	1129.80164	-831.78534	
1127	4.692	6.61762	1283.70935	-683.10944	41.02353	1253.79724	-740.15668	65.73063	1215.74792	-770.98291	47.21531	1266.26624	-703.38641	75.71053	1250.30579	-711.91217	62.22919	1262.14648	-671.19110	55.06153	1249.22998	-647.83429	3.82840	1260.58362	-725.88971	-0.13529	1249.91382	-757.03320	-25.51885	1261.86682	-726.03412	-54.45618	1243.11584	-705.37671	97.75990	1100.31567	-806.32635	143.22429	1153.13892	-729.85217	1.45857	1133.12134	-828.99359	
1128	4.696	6.18233	1289.67981	-684.98944	39.78637	1258.38672	-739.27460	65.89033	1221.19788	-770.04315	45.90324	1270.98450	-703.68494	75.16502	1257.36768	-715.83887	64.62191	1274.45264	-676.62512	60.30047	1262.66943	-652.72034	3.46454	1265.24622	-726.33514	4.92944	1257.44202	-759.27063	-21.52131	1273.47485	-731.74908	-51.77372	1256.44800	-712.89136	95.28578	1102.72852	-801.18597	140.78656	1154.67773	-727.07813	2.25326	1136.29114	-826.03357	
1129	4.700	5.81980	1295.44116	-686.81134	38.33476	1262.84070	-738.07623	65.72776	1226.37610	-768.85718	44.50511	1275.47314	-703.39172	73.09657	1265.33948	-720.61414	66.58913	1286.89465	-683.20001	68.15572	1276.40234	-659.04016	3.24406	1269.76099	-726.70154	11.63075	1265.33911	-760.70526	-16.72187	1284.98657	-738.07239	-49.01170	1269.65039	-724.42584	93.57181	1105.92798	-796.58154	138.86832	1157.01624	-724.96539	2.84627	1139.76648	-823.31409	
1130	4.704	5.46880	1301.01892	-688.61426	36.99696	1267.05737	-736.90479	65.67072	1231.48303	-767.66541	43.19140	1279.62891	-702.53314	69.35860	1272.74829	-726.07965	67.01105	1298.88281	-690.94513	76.58985	1290.00305	-668.22174	3.33079	1274.23865	-727.06927	19.62233	1273.12634	-760.88739	-10.41705	1296.05042	-743.84351	-44.19637	1282.42810	-739.00043	92.63391	1109.77844	-793.02820	137.73718	1160.08765	-723.63269	3.21194	1143.93896	-821.40436	
1131	4.708	5.05919	1306.44849	-690.41681	35.84143	1270.95105	-735.87018	65.89993	1236.55530	-766.49200	42.01541	1283.20386	-701.07050	64.75923	1278.46497	-731.43811	65.30397	1309.90320	-699.33893	83.20564	1303.28918	-680.88416	3.79763	1278.68665	-727.43182	28.20788	1279.32410	-757.36896	-2.67438	1306.37927	-748.05444	-35.49313	1294.99805	-754.77820	92.54213	1114.17883	-791.08636	137.40186	1163.69019	-722.91980	3.43989	1148.94763	-820.73438	
1132	4.713	4.55231	1311.76709	-692.20551	34.86286	1274.54590	-734.96991	66.19952	1240.98584	-765.08966	40.72836	1286.05908	-699.23248	60.27749	1283.53589	-735.04785	61.60902	1319.68445	-707.33228	86.02843	1316.23291	-696.07495	4.54630	1283.01318	-727.67218	35.61860	1285.35132	-751.44836	5.56107	1315.81763	-750.17267	-22.16745	1307.79175	-769.16193	93.35264	1119.04980	-791.08868	137.63116	1167.55688	-722.44336	3.65731	1154.64197	-821.36914	
1133	4.717	3.95126	1316.99622	-693.94147	34.04454	1277.90259	-734.18726	66.56554	1244.99707	-763.64117	38.95466	1288.33997	-697.59442	56.30750	1289.35571	-736.38904	56.78712	1328.29077	-713.62183	84.25541	1328.79773	-711.49939	5.30538	1287.09717	-727.66785	38.52108	1291.68774	-744.98877	12.91584	1324.36938	-750.38495	-5.24655	1321.09143	-779.45538	95.01768	1124.32007	-792.93536	138.08823	1171.41321	-721.78564	3.97228	1160.67102	-822.98206	
1134	4.721	3.27101	1322.13318	-695.58429	33.36929	1281.08362	-733.50568	66.96842	1248.98340	-762.30621	36.68535	1290.36548	-696.53113	52.86422	1295.57458	-736.31470	52.19067	1335.97412	-717.08124	78.59299	1340.86902	-724.32635	5.70996	1290.85266	-727.46271	37.34474	1296.24744	-739.59845	18.03507	1332.06836	-749.61798	12.47286	1334.77319	-784.10089	97.38294	1129.92041	-796.09546	138.48613	1175.04089	-720.70624	4.44997	1166.58264	-825.00714	
1135	4.725	2.50623	1327.15088	-697.10400	32.81993	1284.15149	-732.90814	67.38820	1253.02820	-761.11926	34.74624	1292.75903	-695.82556	50.39314	1301.69629	-735.17700	49.18883	1342.86243	-717.19855	71.17062	1352.23767	-732.05145	5.41385	1294.25708	-727.33313	34.35788	1300.95007	-736.87006	19.93138	1338.79504	-749.30115	27.17333	1348.27332	-783.74945	100.26000	1135.78418	-799.79291	138.70784	1178.35547	-719.26025	5.18019	1171.92041	-826.88470	
1136	4.729	1.64572	1332.01013	-698.48407	32.37928	1287.16870	-732.37811	67.81822	1257.13245	-760.07544	33.88070	1295.99939	-695.08105	49.14007	1307.45227	-732.92346	48.58052	1348.70618	-714.26489	64.92769	1362.54651	-733.29889	4.28792	1297.34546	-727.58575	30.55815	1306.01440	-735.94299	18.31740	1344.17859	-750.81891	35.33070	1360.67041	-781.26019	103.49024	1141.83191	-803.21301	138.83981	1181.46155	-717.74872	6.38691	1176.35730	-828.27289	
